<svg width="507" height="150" viewBox="0 0 507 150" fill="none" xmlns="http://www.w3.org/2000/svg">
<rect y="20" width="130" height="130" rx="35" fill="#F7F7FB"/>
<path d="M58.458 120.536C52.9967 120.536 48.5167 119.683 45.018 117.976C41.5193 116.184 38.9167 113.837 37.21 110.936C35.5033 108.035 34.65 104.835 34.65 101.336C34.65 95.448 36.954 90.6693 41.562 87C46.17 83.3307 53.082 81.496 62.298 81.496H78.426V79.96C78.426 75.608 77.1887 72.408 74.714 70.36C72.2393 68.312 69.1673 67.288 65.498 67.288C62.17 67.288 59.2687 68.0987 56.794 69.72C54.3193 71.256 52.7833 73.56 52.186 76.632H36.186C36.6127 72.024 38.1487 68.0133 40.794 64.6C43.5247 61.1867 47.0233 58.584 51.29 56.792C55.5567 54.9147 60.3353 53.976 65.626 53.976C74.6713 53.976 81.7967 56.2373 87.002 60.76C92.2073 65.2827 94.81 71.6827 94.81 79.96V119H80.858L79.322 108.76C77.4447 112.173 74.7993 114.989 71.386 117.208C68.058 119.427 63.7487 120.536 58.458 120.536ZM62.17 107.736C66.8633 107.736 70.49 106.2 73.05 103.128C75.6953 100.056 77.3593 96.2587 78.042 91.736H64.09C59.738 91.736 56.6233 92.5467 54.746 94.168C52.8687 95.704 51.93 97.624 51.93 99.928C51.93 102.403 52.8687 104.323 54.746 105.688C56.6233 107.053 59.098 107.736 62.17 107.736Z" fill="#170F49"/>
<path d="M170.001 120.536C163.942 120.536 158.566 119.171 153.873 116.44C149.18 113.624 145.468 109.741 142.737 104.792C140.092 99.8427 138.769 93.9973 138.769 87.256C138.769 80.6 140.092 74.7973 142.737 69.848C145.382 64.8133 149.052 60.9307 153.745 58.2C158.524 55.384 164.028 53.976 170.257 53.976C176.401 53.976 181.692 55.384 186.129 58.2C190.652 60.9307 194.108 64.5573 196.497 69.08C198.886 73.6027 200.081 78.4667 200.081 83.672C200.081 84.6107 200.038 85.5493 199.953 86.488C199.953 87.4267 199.953 88.4933 199.953 89.688H149.393C149.649 94.552 150.758 98.6053 152.721 101.848C154.769 105.005 157.286 107.395 160.273 109.016C163.345 110.637 166.588 111.448 170.001 111.448C174.438 111.448 178.15 110.424 181.137 108.376C184.124 106.328 186.3 103.555 187.665 100.056H198.289C196.582 105.944 193.297 110.851 188.433 114.776C183.654 118.616 177.51 120.536 170.001 120.536ZM170.001 63.064C164.881 63.064 160.316 64.6427 156.305 67.8C152.38 70.872 150.118 75.3947 149.521 81.368H189.457C189.201 75.6507 187.238 71.1707 183.569 67.928C179.9 64.6853 175.377 63.064 170.001 63.064ZM214.332 119V55.512H224.06L224.956 67.672C226.919 63.4907 229.905 60.1627 233.916 57.688C237.927 55.2133 242.876 53.976 248.764 53.976V65.24H245.82C242.065 65.24 238.609 65.9227 235.452 67.288C232.295 68.568 229.777 70.7867 227.9 73.944C226.023 77.1013 225.084 81.4533 225.084 87V119H214.332ZM285.92 119C280.117 119 275.552 117.592 272.224 114.776C268.896 111.96 267.232 106.883 267.232 99.544V64.6H256.224V55.512H267.232L268.64 40.28H277.984V55.512H296.672V64.6H277.984V99.544C277.984 103.555 278.795 106.285 280.416 107.736C282.037 109.101 284.896 109.784 288.992 109.784H295.648V119H285.92ZM333.5 120.536C325.991 120.536 320.017 118.275 315.58 113.752C311.143 109.144 308.924 102.104 308.924 92.632V55.512H319.676V91.48C319.676 104.707 325.095 111.32 335.932 111.32C341.479 111.32 346.044 109.357 349.628 105.432C353.297 101.421 355.132 95.7467 355.132 88.408V55.512H365.884V119H356.156L355.388 107.608C353.425 111.619 350.481 114.776 346.556 117.08C342.716 119.384 338.364 120.536 333.5 120.536ZM383.582 119V55.512H393.31L394.206 67.672C396.169 63.4907 399.155 60.1627 403.166 57.688C407.177 55.2133 412.126 53.976 418.014 53.976V65.24H415.07C411.315 65.24 407.859 65.9227 404.702 67.288C401.545 68.568 399.027 70.7867 397.15 73.944C395.273 77.1013 394.334 81.4533 394.334 87V119H383.582ZM430.082 119V26.84H440.834V82.264L466.818 55.512H480.002L451.842 84.184L483.586 119H469.89L440.834 86.104V119H430.082Z" fill="#F7F7FB"/>
</svg>
